<svg xmlns="http://www.w3.org/2000/svg" version="1.1" xmlns:xlink="http://www.w3.org/1999/xlink" xmlns:svgjs="http://svgjs.dev/svgjs" width="1500" height="935" viewBox="0 0 1500 935"><g transform="matrix(1,0,0,1,-0.9090909090909918,0.3785425101214628)"><svg viewBox="0 0 396 247" data-background-color="#ffffff" preserveAspectRatio="xMidYMid meet" height="935" width="1500" xmlns="http://www.w3.org/2000/svg" xmlns:xlink="http://www.w3.org/1999/xlink"><g id="tight-bounds" transform="matrix(1,0,0,1,0.2400000000000091,-0.09999999999999432)"><svg viewBox="0 0 395.52 247.2" height="247.2" width="395.52"><g><svg></svg></g><g><svg viewBox="0 0 395.52 247.2" height="247.2" width="395.52"><g transform="matrix(1,0,0,1,75.54432,85.77323911848642)"><svg viewBox="0 0 244.43135999999998 75.65352176302716" height="75.65352176302716" width="244.43135999999998"><g><svg viewBox="0 0 244.43135999999998 75.65352176302716" height="75.65352176302716" width="244.43135999999998"><g><svg viewBox="0 0 244.43135999999998 75.65352176302716" height="75.65352176302716" width="244.43135999999998"><g><svg viewBox="0 0 244.43135999999998 75.65352176302716" height="75.65352176302716" width="244.43135999999998"><g id="textblocktransform"><svg viewBox="0 0 244.43135999999998 75.65352176302716" height="75.65352176302716" width="244.43135999999998" id="textblock"><g><svg viewBox="0 0 244.43135999999998 40.902026730289556" height="40.902026730289556" width="244.43135999999998"><g transform="matrix(1,0,0,1,0,0)"><svg width="244.43135999999998" viewBox="3.22 -35.96 225.1 37.67" height="40.902026730289556" data-palette-color="#000000"><path d="M27.71-20.07L27.71-20.07Q27.61-19.7 27.34-19.02 27.08-18.33 26.73-17.47 26.39-16.6 25.98-15.64 25.56-14.67 25.17-13.75L25.17-13.75Q25-13.33 24.77-13.13 24.54-12.94 23.83-12.92L23.83-12.92 16.7-12.79 15.82-1.95Q15.8-1.73 15.7-1.53 15.6-1.32 15.41-1.2L15.41-1.2Q15.33-1.15 14.83-0.92 14.33-0.68 13.57-0.37 12.82-0.05 11.91 0.32 11.01 0.68 10.13 0.99 9.25 1.29 8.52 1.5 7.79 1.71 7.37 1.71L7.37 1.71Q6.88 1.71 6.48 1.53 6.08 1.34 6.08 0.78L6.08 0.78Q6.05-0.44 6.14-1.92 6.23-3.39 6.35-4.92 6.47-6.45 6.62-7.92 6.76-9.4 6.86-10.62L6.86-10.62 7.03-12.67Q4.98-12.67 4.1-12.78 3.22-12.89 3.22-13.35L3.22-13.35Q3.22-13.67 3.59-14.18L3.59-14.18Q4.1-14.89 4.75-15.89 5.4-16.89 5.99-17.85 6.59-18.8 7.04-19.53 7.5-20.26 7.62-20.43L7.62-20.43 8.08-27.15Q7.62-27.15 7.28-27.14 6.93-27.12 6.65-27.11 6.37-27.1 6.13-27.09 5.88-27.08 5.62-27.08L5.62-27.08Q4.44-27.08 3.94-27.21 3.44-27.34 3.44-27.71L3.44-27.71Q3.44-27.88 3.74-28.42 4.03-28.96 4.46-29.65 4.88-30.35 5.38-31.12 5.88-31.88 6.27-32.54L6.27-32.54 7.74-35.03 18.85-35.42Q21-35.5 23.12-35.58 25.24-35.67 27.04-35.74 28.83-35.82 30.13-35.88 31.42-35.94 31.93-35.96L31.93-35.96Q31.96-35.96 32.07-35.95 32.18-35.94 32.3-35.88 32.42-35.82 32.53-35.67 32.64-35.52 32.64-35.25L32.64-35.25Q32.64-35.11 32.3-34.28 31.96-33.45 31.32-31.81L31.32-31.81 30.25-28.98Q30.08-28.56 29.86-28.34 29.64-28.13 28.93-28.1L28.93-28.1Q28.1-28.08 27.25-28.03 26.39-27.98 25.49-27.93L25.49-27.93 18.07-27.56Q17.92-26.61 17.86-26.15 17.8-25.68 17.79-25.38 17.77-25.07 17.77-24.77 17.77-24.46 17.75-23.8L17.75-23.8Q17.72-23.34 17.69-23.02 17.65-22.71 17.61-22.4 17.58-22.09 17.54-21.75 17.5-21.41 17.48-20.9L17.48-20.9Q19.09-20.95 20.64-21 22.19-21.04 23.5-21.09 24.8-21.14 25.76-21.18 26.71-21.22 27.1-21.22L27.1-21.22Q27.29-21.22 27.54-21.07 27.78-20.92 27.78-20.51L27.78-20.51Q27.78-20.31 27.71-20.07ZM58.49-27L56.2-3.03Q56.13-2.22 56-1.92 55.88-1.61 55.47-1.51L55.47-1.51Q53.39-0.93 51.13-0.33 48.87 0.27 46.75 1.25L46.75 1.25Q46.68 1.27 46.53 1.27L46.53 1.27Q46.34 1.27 46.3 1.17 46.26 1.07 46.26 0.95L46.26 0.95Q46.26 0.9 46.27 0.78 46.29 0.66 46.34 0.33 46.38 0 46.47-0.59 46.56-1.17 46.7-2.15L46.7-2.15Q43.97-0.37 41.86 0.45 39.74 1.27 38.11 1.27L38.11 1.27Q34.03 1.27 32.16-0.7 30.3-2.66 30.3-6.57L30.3-6.57Q30.3-7.28 30.32-8.02 30.34-8.76 30.47-9.55L30.47-9.55Q30.73-12.43 30.93-14.49 31.13-16.55 31.25-17.99 31.37-19.43 31.46-20.35 31.54-21.26 31.6-21.88 31.66-22.49 31.7-22.89 31.74-23.29 31.78-23.68L31.78-23.68Q31.88-24.46 31.97-24.78 32.05-25.1 32.52-25.2L32.52-25.2Q33.66-25.42 34.7-25.6 35.74-25.78 36.75-25.99 37.77-26.2 38.82-26.44 39.87-26.68 41.04-27.03L41.04-27.03Q41.09-27.03 41.14-27.04 41.18-27.05 41.23-27.05L41.23-27.05Q41.53-27.05 41.53-26.86L41.53-26.86 41.53-26.81Q41.43-25.98 41.35-25.24 41.28-24.51 41.21-23.74 41.14-22.97 41.05-22.09 40.96-21.22 40.84-20.06 40.72-18.9 40.55-17.38 40.38-15.87 40.13-13.87L40.13-13.87Q39.99-12.4 39.84-10.95 39.69-9.5 39.69-8.25L39.69-8.25Q39.69-7.57 39.79-6.99 39.89-6.42 40.15-6.02 40.4-5.62 40.82-5.4 41.23-5.18 41.89-5.18L41.89-5.18Q42.4-5.18 43.28-5.41 44.16-5.64 45.04-6.21 45.92-6.79 46.59-7.73 47.26-8.67 47.36-10.11L47.36-10.11Q47.53-12.52 47.67-14.15 47.8-15.77 47.9-16.88 48-17.99 48.07-18.75 48.14-19.51 48.2-20.2 48.26-20.9 48.31-21.69 48.36-22.49 48.41-23.68L48.41-23.68Q48.48-24.49 48.59-24.79 48.7-25.1 49.14-25.2L49.14-25.2Q51.36-25.63 53.68-26.09 56-26.54 58.23-27.25L58.23-27.25Q58.42-27.25 58.46-27.19 58.49-27.12 58.49-27L58.49-27ZM87.84-0.78L81.9 0.88Q81.64 0.95 81.2 1.11 80.76 1.27 80.34 1.27L80.34 1.27Q80 1.27 79.74 1.1 79.49 0.93 79.49 0.51L79.49 0.51 79.49 0.37Q79.63-0.95 79.73-1.87 79.83-2.78 79.91-3.53 80-4.27 80.06-5.02 80.12-5.76 80.22-6.75 80.32-7.74 80.45-9.09 80.59-10.45 80.78-12.48L80.78-12.48Q80.9-13.72 81-15.01 81.1-16.31 81.1-17.41L81.1-17.41Q81.1-18.14 80.99-18.76 80.88-19.38 80.6-19.84 80.32-20.29 79.83-20.53 79.34-20.78 78.58-20.78L78.58-20.78Q78.02-20.78 77.03-20.53 76.04-20.29 75.07-19.73 74.09-19.17 73.33-18.25 72.58-17.33 72.48-15.99L72.48-15.99Q72.33-14.18 72.21-12.9 72.09-11.62 71.99-10.73 71.89-9.84 71.83-9.28 71.77-8.72 71.75-8.33L71.75-8.33Q71.72-8.23 71.67-7.79 71.63-7.35 71.56-6.74 71.5-6.13 71.44-5.44 71.38-4.76 71.32-4.15 71.26-3.54 71.22-3.1 71.19-2.66 71.19-2.56L71.19-2.56Q71.19-2.37 71.2-2.23 71.21-2.1 71.21-1.98L71.21-1.98Q71.21-1.78 71.03-1.65 70.84-1.51 70.21-1.34L70.21-1.34 63.74 0.88Q63.47 0.98 63.03 1.12 62.59 1.27 62.18 1.27L62.18 1.27Q61.84 1.27 61.58 1.1 61.32 0.93 61.32 0.51L61.32 0.51 63.54-24.44Q63.62-25.24 63.73-25.55 63.84-25.85 64.28-25.95L64.28-25.95Q66.5-26.39 68.84-26.84 71.19-27.29 73.41-28L73.41-28Q73.6-28 73.64-27.94 73.68-27.88 73.68-27.76L73.68-27.76Q73.68-27.71 73.66-27.61 73.65-27.51 73.59-27.17 73.53-26.83 73.42-26.14 73.31-25.44 73.12-24.19L73.12-24.19Q74.8-25.17 76.28-25.77 77.75-26.37 79.06-26.7 80.37-27.03 81.51-27.14 82.66-27.25 83.66-27.25L83.66-27.25Q87.1-27.25 88.67-25.16 90.23-23.07 90.23-18.9L90.23-18.9Q90.23-18.31 90.2-17.69 90.18-17.07 90.11-16.41L90.11-16.41 88.98-5.91Q88.86-4.88 88.84-4.02 88.81-3.15 88.81-2L88.81-2Q88.81-1.81 88.83-1.67 88.84-1.54 88.84-1.44L88.84-1.44Q88.84-1.22 88.65-1.1 88.47-0.98 87.84-0.78L87.84-0.78ZM129.43-20.07L129.43-20.07Q129.34-19.7 129.07-19.02 128.8-18.33 128.46-17.47 128.12-16.6 127.7-15.64 127.28-14.67 126.89-13.75L126.89-13.75Q126.72-13.33 126.49-13.13 126.26-12.94 125.55-12.92L125.55-12.92 118.42-12.79 117.54-1.95Q117.52-1.73 117.42-1.53 117.32-1.32 117.13-1.2L117.13-1.2Q117.06-1.15 116.55-0.92 116.05-0.68 115.3-0.37 114.54-0.05 113.64 0.32 112.73 0.68 111.86 0.99 110.98 1.29 110.24 1.5 109.51 1.71 109.1 1.71L109.1 1.71Q108.61 1.71 108.21 1.53 107.8 1.34 107.8 0.78L107.8 0.78Q107.78-0.44 107.86-1.92 107.95-3.39 108.07-4.92 108.19-6.45 108.34-7.92 108.49-9.4 108.58-10.62L108.58-10.62 108.75-12.67Q106.7-12.67 105.82-12.78 104.95-12.89 104.95-13.35L104.95-13.35Q104.95-13.67 105.31-14.18L105.31-14.18Q105.82-14.89 106.47-15.89 107.12-16.89 107.72-17.85 108.32-18.8 108.77-19.53 109.22-20.26 109.34-20.43L109.34-20.43 109.8-27.15Q109.34-27.15 109-27.14 108.66-27.12 108.38-27.11 108.1-27.1 107.85-27.09 107.61-27.08 107.34-27.08L107.34-27.08Q106.17-27.08 105.67-27.21 105.17-27.34 105.17-27.71L105.17-27.71Q105.17-27.88 105.46-28.42 105.75-28.96 106.18-29.65 106.61-30.35 107.11-31.12 107.61-31.88 108-32.54L108-32.54 109.46-35.03 120.57-35.42Q122.72-35.5 124.84-35.58 126.97-35.67 128.76-35.74 130.56-35.82 131.85-35.88 133.14-35.94 133.66-35.96L133.66-35.96Q133.68-35.96 133.79-35.95 133.9-35.94 134.02-35.88 134.15-35.82 134.26-35.67 134.37-35.52 134.37-35.25L134.37-35.25Q134.37-35.11 134.02-34.28 133.68-33.45 133.05-31.81L133.05-31.81 131.97-28.98Q131.8-28.56 131.58-28.34 131.36-28.13 130.65-28.1L130.65-28.1Q129.82-28.08 128.97-28.03 128.12-27.98 127.21-27.93L127.21-27.93 119.79-27.56Q119.64-26.61 119.58-26.15 119.52-25.68 119.51-25.38 119.5-25.07 119.5-24.77 119.5-24.46 119.47-23.8L119.47-23.8Q119.45-23.34 119.41-23.02 119.37-22.71 119.34-22.4 119.3-22.09 119.26-21.75 119.23-21.41 119.2-20.9L119.2-20.9Q120.82-20.95 122.37-21 123.92-21.04 125.22-21.09 126.53-21.14 127.48-21.18 128.43-21.22 128.82-21.22L128.82-21.22Q129.02-21.22 129.26-21.07 129.51-20.92 129.51-20.51L129.51-20.51Q129.51-20.31 129.43-20.07ZM159.26-27.66L156.75-4.91Q156.73-4.81 156.73-4.72 156.73-4.64 156.73-4.57L156.73-4.57Q156.73-3.96 156.92-3.55 157.12-3.15 157.35-2.89 157.58-2.64 157.78-2.48 157.97-2.32 157.97-2.2L157.97-2.2Q157.97-1.86 157.24-1.56L157.24-1.56 150.67 1.25Q150.65 1.27 150.5 1.27L150.5 1.27Q150.3 1.27 150.11 0.93 149.91 0.59 149.73 0.06 149.55-0.46 149.39-1.06 149.23-1.66 149.11-2.17L149.11-2.17Q147.57-0.39 145.79 0.44 144.01 1.27 142.25 1.27L142.25 1.27Q140.2 1.27 138.24 0.37 136.29-0.54 134.78-2.21 133.26-3.88 132.35-6.25 131.43-8.62 131.43-11.57L131.43-11.57Q131.43-15.06 132.45-17.94 133.46-20.83 135.19-22.9 136.93-24.98 139.23-26.11 141.54-27.25 144.13-27.25L144.13-27.25Q145.96-27.25 147.59-26.5 149.23-25.76 150.7-24.58L150.7-24.58Q150.84-25.32 150.87-25.76 150.89-26.2 150.98-26.44 151.06-26.68 151.31-26.77 151.55-26.86 152.11-26.9L152.11-26.9Q153.87-27.15 155.61-27.36 157.36-27.56 159.26-27.66L159.26-27.66ZM148.43-6.88L149.45-14.11Q149.69-15.5 149.78-16.74 149.87-17.97 149.91-18.99L149.91-18.99Q149.52-19.29 149.07-19.6 148.62-19.92 148.1-20.2 147.57-20.48 147-20.65 146.42-20.83 145.79-20.83L145.79-20.83Q144.47-20.83 143.58-19.97 142.69-19.12 142.14-17.87 141.59-16.63 141.36-15.23 141.13-13.84 141.13-12.77L141.13-12.77Q141.13-8.91 142.14-7.12 143.15-5.32 144.96-5.32L144.96-5.32Q145.69-5.32 146.59-5.74 147.5-6.15 148.43-6.88L148.43-6.88ZM161.8-11.91L161.8-11.91Q161.8-15.11 162.99-17.91 164.17-20.7 166.26-22.78 168.34-24.85 171.19-26.05 174.03-27.25 177.38-27.25L177.38-27.25Q179.65-27.25 181.26-26.88 182.87-26.51 183.9-26.06 184.92-25.61 185.4-25.23 185.87-24.85 185.87-24.83L185.87-24.83Q185.87-24.68 185.76-24.01 185.65-23.34 185.52-22.45 185.39-21.56 185.28-20.62 185.17-19.68 185.17-18.99L185.17-18.99Q185.17-18.87 185.09-18.73 185.02-18.58 184.7-18.58L184.7-18.58Q184.41-18.58 183.85-18.79 183.29-18.99 182.47-19.24 181.65-19.48 180.59-19.69 179.53-19.9 178.23-19.9L178.23-19.9Q176.62-19.9 175.33-19.32 174.03-18.75 173.11-17.74 172.18-16.72 171.68-15.33 171.18-13.94 171.18-12.33L171.18-12.33Q171.18-10.64 171.7-9.46 172.23-8.28 173.11-7.53 173.98-6.79 175.13-6.45 176.28-6.1 177.55-6.1L177.55-6.1Q179.01-6.1 180.5-6.51 181.99-6.91 183.31-7.64L183.31-7.64Q183.36-7.67 183.51-7.67L183.51-7.67Q183.63-7.67 183.69-7.54 183.75-7.42 183.75-7.08L183.75-7.08Q183.75-6.3 183.75-5.19 183.75-4.08 183.74-3.06 183.73-2.05 183.7-1.34 183.68-0.63 183.65-0.63L183.65-0.63Q182.77-0.05 181.75 0.32 180.72 0.68 179.64 0.9 178.55 1.12 177.45 1.2 176.35 1.27 175.33 1.27L175.33 1.27Q172.47 1.27 170 0.32 167.54-0.63 165.72-2.37 163.9-4.1 162.85-6.53 161.8-8.96 161.8-11.91ZM205.7-18.82L201.15-18.82Q200.81-16.26 200.51-13.71 200.2-11.16 200.13-8.94L200.13-8.94Q200.13-7.98 200.28-7.35 200.42-6.71 200.7-6.35 200.98-5.98 201.37-5.82 201.76-5.66 202.25-5.66L202.25-5.66Q203.03-5.66 203.96-5.9 204.89-6.13 205.82-6.49L205.82-6.49Q206.11-6.62 206.32-6.68 206.53-6.74 206.67-6.74L206.67-6.74Q206.92-6.74 207-6.52 207.09-6.3 207.17-5.75 207.26-5.2 207.43-4.27 207.6-3.34 207.99-1.93L207.99-1.93Q208.01-1.81 208.03-1.72 208.04-1.64 208.04-1.56L208.04-1.56Q208.04-1.22 207.78-1.07 207.53-0.93 206.94-0.73L206.94-0.73Q205.94-0.39 204.83-0.04 203.72 0.32 202.63 0.61 201.55 0.9 200.54 1.09 199.54 1.27 198.79 1.27L198.79 1.27Q194.71 1.27 192.84-0.76 190.97-2.78 190.97-6.93L190.97-6.93Q190.97-7.64 191.02-8.39 191.07-9.13 191.14-9.94L191.14-9.94Q191.39-12.38 191.57-14.56 191.75-16.75 191.95-18.75L191.95-18.75 189.39-18.75Q188.07-18.75 187.48-18.86 186.9-18.97 186.9-19.31L186.9-19.31Q186.9-19.41 187.14-19.84 187.38-20.26 187.76-20.86 188.14-21.46 188.58-22.14 189.02-22.83 189.42-23.43 189.83-24.02 190.12-24.46 190.41-24.9 190.49-25L190.49-25 192.22-25Q192.44-26.86 192.57-28.11 192.71-29.37 192.79-30.2 192.88-31.03 192.95-31.48 193.02-31.93 193.11-32.15 193.2-32.37 193.33-32.43 193.46-32.5 193.68-32.54L193.68-32.54Q194.78-32.76 195.81-32.95 196.83-33.13 197.86-33.33 198.88-33.52 199.95-33.78 201.01-34.03 202.16-34.38L202.16-34.38Q202.23-34.38 202.25-34.39 202.28-34.4 202.35-34.4L202.35-34.4Q202.64-34.4 202.64-34.2L202.64-34.2 202.64-34.16Q202.52-32.81 202.27-30.42 202.01-28.03 201.69-25L201.69-25 208.23-25Q208.43-25 208.61-24.87 208.8-24.73 208.8-24.41L208.8-24.41Q208.8-24.29 208.5-23.54 208.21-22.78 207.67-21.56L207.67-21.56 206.79-19.58Q206.62-19.21 206.44-19.04 206.26-18.87 205.7-18.82L205.7-18.82ZM211.23-0.07L210.92-6.74Q210.92-6.76 210.91-6.77 210.89-6.79 210.89-6.81L210.89-6.81Q210.89-7.13 211.23-7.13L211.23-7.13Q211.45-7.13 211.63-6.96L211.63-6.96Q212.6-6.03 213.86-5.44 215.12-4.86 216.58-4.86L216.58-4.86Q216.97-4.86 217.48-4.94 218-5.03 218.46-5.22 218.93-5.42 219.23-5.75 219.54-6.08 219.54-6.57L219.54-6.57Q219.54-7.1 219.27-7.56 219-8.01 218.56-8.3L218.56-8.3Q218.31-8.47 217.7-8.9 217.09-9.33 216.4-9.81 215.7-10.3 215.08-10.74 214.46-11.18 214.21-11.38L214.21-11.38Q213.11-12.21 212.47-13.06 211.82-13.92 211.48-14.83 211.14-15.75 211.04-16.75 210.94-17.75 210.94-18.87L210.94-18.87Q210.94-20.58 211.85-22.09 212.75-23.61 214.23-24.76 215.7-25.9 217.58-26.57 219.46-27.25 221.42-27.25L221.42-27.25Q223.03-27.25 224.59-26.76 226.15-26.27 227.49-25.1L227.49-25.1Q227.62-23.56 227.67-22.07 227.71-20.58 227.81-18.95L227.81-18.95Q227.81-18.63 227.67-18.52 227.52-18.41 227.32-18.41L227.32-18.41Q227.15-18.41 227.03-18.53L227.03-18.53Q226.47-19.07 225.88-19.59 225.3-20.12 224.65-20.52 224-20.92 223.27-21.18 222.54-21.44 221.71-21.44L221.71-21.44Q221.2-21.44 220.68-21.35 220.17-21.26 219.76-21.03 219.34-20.8 219.08-20.41 218.83-20.02 218.83-19.41L218.83-19.41Q218.83-18.7 219-18.19 219.17-17.68 219.8-17.19L219.8-17.19 224.35-14.11Q225.59-13.26 226.36-12.44 227.13-11.62 227.57-10.82 228.01-10.01 228.17-9.22 228.32-8.42 228.32-7.64L228.32-7.64Q228.32-5.44 227.31-3.77 226.3-2.1 224.69-0.99 223.08 0.12 221.04 0.7 219 1.27 216.95 1.27L216.95 1.27Q215.39 1.27 213.93 0.94 212.48 0.61 211.23-0.07L211.23-0.07Z" opacity="1" transform="matrix(1,0,0,1,0,0)" fill="#000000" class="wordmark-text-0" data-fill-palette-color="primary" id="text-0"></path></svg></g></svg></g><g transform="matrix(1,0,0,1,0,50.5580135926694)"><svg viewBox="0 0 244.43135999999998 25.095508170357753" height="25.095508170357753" width="244.43135999999998"><g transform="matrix(1,0,0,1,0,0)"><svg width="244.43135999999998" viewBox="3.75 -44.15 440.21 45.199999999999996" height="25.095508170357753" data-palette-color="#433b3d"><path d="M25.1-8.85Q25.1-10.4 23.85-11.75 22.6-13.1 20.73-14.23 18.85-15.35 15.65-17L15.65-17Q11.85-19 9.55-20.43 7.25-21.85 5.63-23.8 4-25.75 4-28.1L4-28.1Q4-30.6 6.1-33.48 8.2-36.35 11.23-38.33 14.25-40.3 16.8-40.3L16.8-40.3Q19.9-40.3 24-39.55 28.1-38.8 30-37.95L30-37.95 30-28.25 28.1-28.25Q25.65-32.3 22.73-34.55 19.8-36.8 16.6-36.8L16.6-36.8Q13.75-36.8 12.08-35.02 10.4-33.25 10.4-30.4L10.4-30.4Q10.4-28.75 11.68-27.33 12.95-25.9 14.83-24.8 16.7-23.7 20.05-21.95L20.05-21.95Q23.75-20.1 26.05-18.68 28.35-17.25 29.93-15.38 31.5-13.5 31.5-11.15L31.5-11.15Q31.5-8.65 29.25-5.78 27-2.9 23.78-0.93 20.55 1.05 17.9 1.05L17.9 1.05Q14.65 1.05 10.18 0.3 5.7-0.45 3.75-1.3L3.75-1.3 3.75-11 5.65-11Q8.2-6.95 11.45-4.7 14.7-2.45 18.15-2.45L18.15-2.45Q20.2-2.45 21.8-3.35 23.4-4.25 24.25-5.73 25.1-7.2 25.1-8.85L25.1-8.85ZM68.7-2L67.7 0 58.2 0 58.2-16.85Q58.2-19.6 57.35-20.7 56.5-21.8 54.3-21.8L54.3-21.8Q52.65-21.8 51.02-21.2 49.4-20.6 47.2-18.9L47.2-18.9 47.2-3.75 51.7-2 50.7 0 36.75 0 36.75-1.55 41.2-5.05 41.2-35.8 36.75-38.9 36.75-40.45 45.3-43.65 47.2-43.65 47.2-21.25 54.05-26.65Q55.1-27.05 56.8-27.05L56.8-27.05Q60.2-27.05 62.2-24.98 64.2-22.9 64.2-19.35L64.2-19.35 64.2-3.75 68.7-2ZM99.75-2L98.75 0 89.25 0 89.25-4.35 83.6 0.1Q82.6 0.5 81.1 0.5L81.1 0.5Q76.8 0.5 74.87-1.65 72.95-3.8 72.95-6.8L72.95-6.8Q72.95-8.6 74.25-10.35 75.55-12.1 77.95-13.65L77.95-13.65 89.25-13.65 89.25-16.85Q89.25-20.1 87.52-21.45 85.8-22.8 82.8-22.8L82.8-22.8Q79.7-22.8 75.2-19.05L75.2-19.05 73.7-20.95 80.9-26.65Q82.9-27.05 85.7-27.05L85.7-27.05Q90.25-27.05 92.75-24.83 95.25-22.6 95.25-18.35L95.25-18.35 95.25-3.75 99.75-2ZM82.7-3.75Q85.75-3.75 89.25-6.55L89.25-6.55 89.25-11.6 80.4-11.6Q79.75-10.8 79.47-10 79.2-9.2 79.2-8.25L79.2-8.25Q79.2-6.4 80.15-5.08 81.1-3.75 82.7-3.75L82.7-3.75ZM121.79-27Q123.44-27 124.69-26.1 125.94-25.2 126.64-23.6L126.64-23.6 123.34-19.45 121.44-19.45Q121.24-20.7 120.72-21.23 120.19-21.75 119.29-21.75L119.29-21.75Q118.19-21.75 116.97-21.18 115.74-20.6 114.19-19L114.19-19 114.19-4.1 121.19-1.95 120.19 0.05 103.74 0.05 103.74-1.5 108.19-5 108.19-19.15 103.74-21.75 103.74-23.3 112.29-27.5 113.84-21.35 119.04-26.65Q120.09-27.05 121.79-27.05L121.79-27.05 121.79-27ZM155.59-6.9L146.74 0.1Q144.74 0.5 141.94 0.5L141.94 0.5Q138.64 0.5 136.02-1.23 133.39-2.95 131.92-5.9 130.44-8.85 130.44-12.4L130.44-12.4Q130.44-16.25 132.79-19.63 135.14-23 138.67-25.03 142.19-27.05 145.49-27.05L145.49-27.05Q150.24-27.05 152.87-23.3 155.49-19.55 155.49-13.4L155.49-13.4 136.99-13.4Q137.29-9.15 139.31-6.45 141.34-3.75 144.84-3.75L144.84-3.75Q148.09-3.75 154.09-8.8L154.09-8.8 155.59-6.9ZM142.59-22.85Q137.19-22.85 136.94-15.45L136.94-15.45 148.64-15.45Q148.19-18.15 147.72-19.58 147.24-21 146.06-21.93 144.89-22.85 142.59-22.85L142.59-22.85ZM202.84-2L201.84 0 192.34 0 192.34-4.35 186.69 0.1Q185.69 0.5 184.19 0.5L184.19 0.5Q179.88 0.5 177.96-1.65 176.03-3.8 176.03-6.8L176.03-6.8Q176.03-8.6 177.34-10.35 178.63-12.1 181.03-13.65L181.03-13.65 192.34-13.65 192.34-16.85Q192.34-20.1 190.61-21.45 188.88-22.8 185.88-22.8L185.88-22.8Q182.78-22.8 178.28-19.05L178.28-19.05 176.78-20.95 183.98-26.65Q185.98-27.05 188.78-27.05L188.78-27.05Q193.34-27.05 195.84-24.83 198.34-22.6 198.34-18.35L198.34-18.35 198.34-3.75 202.84-2ZM185.78-3.75Q188.84-3.75 192.34-6.55L192.34-6.55 192.34-11.6 183.48-11.6Q182.84-10.8 182.56-10 182.28-9.2 182.28-8.25L182.28-8.25Q182.28-6.4 183.23-5.08 184.19-3.75 185.78-3.75L185.78-3.75ZM238.78-44.15Q240.18-44.15 241.96-43.88 243.73-43.6 244.48-43.3L244.48-43.3 244.48-35.6 242.58-35.6Q241.33-37.6 239.53-38.78 237.73-39.95 235.88-39.95L235.88-39.95Q233.58-39.95 232.41-37.9 231.23-35.85 231.23-31.9L231.23-31.9 231.23-25.05 240.23-25.05 240.23-23 231.23-23 231.23-4.15 238.23-2 237.23 0 220.78 0 220.78-1.55 225.23-5.05 225.23-23 219.28-23 219.28-25.05 225.23-25.05 225.23-29.5Q225.23-33.35 227.33-36.75 229.43-40.15 232.6-42.15 235.78-44.15 238.78-44.15L238.78-44.15ZM273.18-2L272.18 0 262.68 0 262.68-5.2 256.33 0.1Q255.28 0.5 253.58 0.5L253.58 0.5Q250.18 0.5 248.18-1.58 246.18-3.65 246.18-7.2L246.18-7.2 246.18-19.15 241.73-21.75 241.73-23.3 250.28-27.5 252.18-27.5 252.18-9.7Q252.18-6.95 253.03-5.85 253.88-4.75 256.08-4.75L256.08-4.75Q257.63-4.75 259.13-5.33 260.63-5.9 262.68-7.6L262.68-7.6 262.68-19.15 258.23-21.75 258.23-23.3 266.78-27.5 268.68-27.5 268.68-3.75 273.18-2ZM309.63-1.95L308.63 0.05 299.13 0.05 299.13-16.8Q299.13-19.55 298.28-20.65 297.43-21.75 295.23-21.75L295.23-21.75Q293.57-21.75 291.95-21.15 290.32-20.55 288.13-18.85L288.13-18.85 288.13-3.7 292.63-1.95 291.63 0.05 277.68 0.05 277.68-1.5 282.13-5 282.13-19.15 277.68-21.75 277.68-23.3 286.23-27.5 287.88-21 294.98-26.65Q296.03-27.05 297.73-27.05L297.73-27.05Q301.13-27.05 303.13-24.98 305.13-22.9 305.13-19.35L305.13-19.35 305.13-3.75 309.63-1.95ZM345.57-44.15Q346.97-44.15 348.75-43.88 350.52-43.6 351.27-43.3L351.27-43.3 351.27-35.6 349.37-35.6Q348.12-37.6 346.32-38.78 344.52-39.95 342.67-39.95L342.67-39.95Q340.37-39.95 339.19-37.9 338.02-35.85 338.02-31.9L338.02-31.9 338.02-25.05 347.02-25.05 347.02-23 338.02-23 338.02-4.15 345.02-2 344.02 0 327.57 0 327.57-1.55 332.02-5.05 332.02-23 326.07-23 326.07-25.05 332.02-25.05 332.02-29.5Q332.02-33.35 334.12-36.75 336.22-40.15 339.39-42.15 342.57-44.15 345.57-44.15L345.57-44.15ZM376.57-2L375.57 0 366.07 0 366.07-4.35 360.42 0.1Q359.42 0.5 357.92 0.5L357.92 0.5Q353.62 0.5 351.69-1.65 349.77-3.8 349.77-6.8L349.77-6.8Q349.77-8.6 351.07-10.35 352.37-12.1 354.77-13.65L354.77-13.65 366.07-13.65 366.07-16.85Q366.07-20.1 364.34-21.45 362.62-22.8 359.62-22.8L359.62-22.8Q356.52-22.8 352.02-19.05L352.02-19.05 350.52-20.95 357.72-26.65Q359.72-27.05 362.52-27.05L362.52-27.05Q367.07-27.05 369.57-24.83 372.07-22.6 372.07-18.35L372.07-18.35 372.07-3.75 376.57-2ZM359.52-3.75Q362.57-3.75 366.07-6.55L366.07-6.55 366.07-11.6 357.22-11.6Q356.57-10.8 356.29-10 356.02-9.2 356.02-8.25L356.02-8.25Q356.02-6.4 356.97-5.08 357.92-3.75 359.52-3.75L359.52-3.75ZM395.37-27.05Q397.42-27.05 400.14-26.48 402.87-25.9 404.06-25.2L404.06-25.2 404.06-17.5 402.17-17.5Q400.21-20 397.69-21.43 395.17-22.85 392.46-22.85L392.46-22.85Q390.17-22.85 388.99-20.8 387.81-18.75 387.81-14.8L387.81-14.8Q387.81-10.1 389.87-6.93 391.92-3.75 395.71-3.75L395.71-3.75Q398.56-3.75 403.81-7.85L403.81-7.85 405.31-5.95 397.62 0.1Q395.62 0.5 392.81 0.5L392.81 0.5Q389.51 0.5 386.89-1.23 384.26-2.95 382.79-5.9 381.31-8.85 381.31-12.4L381.31-12.4Q381.31-16.25 383.49-19.65 385.67-23.05 388.96-25.05 392.26-27.05 395.37-27.05L395.37-27.05ZM430.51-3.9L425.46 0.1Q424.31 0.5 422.66 0.5L422.66 0.5Q418.51 0.5 416.59-1.68 414.66-3.85 414.66-8.4L414.66-8.4 414.66-23 409.26-23 409.26-25.05 418.76-36.1 420.66-36.1 420.66-25.05 429.66-25.05 429.66-23 420.66-23 420.66-7.8Q420.66-3.75 424.56-3.75L424.56-3.75Q425.61-3.75 426.59-4.2 427.56-4.65 429.01-5.8L429.01-5.8 430.51-3.9ZM441.31-12.15L438.31-12.15 435.26-35.25 435.26-36.8 442.06-39.3 443.96-39.3 441.31-12.15ZM440.31-7.75Q441.81-7.75 442.78-6.65 443.76-5.55 443.76-3.9L443.76-3.9Q443.76-2.75 443.06-1.73 442.36-0.7 441.31-0.1 440.26 0.5 439.26 0.5L439.26 0.5Q437.76 0.5 436.78-0.6 435.81-1.7 435.81-3.35L435.81-3.35Q435.81-4.5 436.51-5.53 437.21-6.55 438.26-7.15 439.31-7.75 440.31-7.75L440.31-7.75Z" opacity="1" transform="matrix(1,0,0,1,0,0)" fill="#433b3d" class="slogan-text-1" data-fill-palette-color="secondary" id="text-1"></path></svg></g></svg></g></svg></g></svg></g></svg></g></svg></g></svg></g><g><path d="M245.816 0c68.262 0 123.6 55.338 123.6 123.6 0 68.262-55.338 123.6-123.6 123.6-53.271 0-98.671-33.701-116.043-80.945l1.968 0c17.285 46.205 61.838 79.101 114.075 79.101 67.244 0 121.756-54.512 121.755-121.756 0-67.244-54.512-121.756-121.755-121.756-52.237 0-96.79 32.895-114.075 79.101l-1.968 0c17.372-47.245 62.771-80.945 116.043-80.945z" fill="#000000" stroke="transparent" data-fill-palette-color="tertiary"></path></g></svg></g><defs></defs></svg><rect width="395.52" height="247.2" fill="none" stroke="none" visibility="hidden"></rect></g></svg></g></svg>